# xmcd
#
# Track frame offsets: 
#        150
#        16451
#        32538
#        45338
#        63787
#        80031
#        95549
#        108267
#        125544
#        141507
#        154121
#        169540
#        182490
#
# Disc length: 2696 seconds
#
# Revision: 0
# Processed by: cddbd v1.5.2PL0 Copyright (c) Steve Scherf et al.
# Submitted via: ExactAudioCopy v1.3
#
DISCID=9f0a860d
DTITLE=Bluesaholics - Amazing Shadows
DYEAR=2016
DGENRE=Blues
TTITLE0=Spider
TTITLE1=Gospel Skip
TTITLE2=Spoonful
TTITLE3=The Reason
TTITLE4=Return Of The Rabbit
TTITLE5=Stone River
TTITLE6=Don't Drive My Car
TTITLE7=Geb ned uf
TTITLE8=Forget The Distance
TTITLE9=Fool Moon Boogie
TTITLE10=Lucky Man
TTITLE11=Be My Baby
TTITLE12=Too Little Too Late
EXTD=
EXTT0=
EXTT1=
EXTT2=
EXTT3=
EXTT4=
EXTT5=
EXTT6=
EXTT7=
EXTT8=
EXTT9=
EXTT10=
EXTT11=
EXTT12=
PLAYORDER=
